# xmcd
#
# Track frame offsets: 
#        300
#        20228
#        43204
#        54980
#        69157
#        78357
#        89007
#        115037
#        131583
#        140515
#        152712
#        163249
#        174274
#        187900
#
# Disc length: 2695 seconds
#
# Revision: 7
# Processed by: cddbd v1.5.2PL0 Copyright (c) Steve Scherf et al.
# Submitted via: ExactAudioCopy v0.99pb5
#
DISCID=bb0a830e
DTITLE=Eric Clapton And The Yardbirds - Let It Rock
DYEAR=2008
DGENRE=Blues
TTITLE0=I'm a Man
TTITLE1=Five Long Years
TTITLE2=Got Love If You Want It
TTITLE3=Highway 69
TTITLE4=I Ain't Got You
TTITLE5=Let It Rock
TTITLE6=Take It Easy Baby
TTITLE7=My Little Cabin
TTITLE8=Talkin' About You
TTITLE9=Pounds And Stomps
TTITLE10=I Wish You Would
TTITLE11=Paff...Bum
TTITLE12=Like Jimmy Reed Again
TTITLE13=Out On The Water Coast
EXTD=YEAR: 2004
EXTT0=
EXTT1=
EXTT2=
EXTT3=
EXTT4=
EXTT5=
EXTT6=
EXTT7=
EXTT8=
EXTT9=
EXTT10=
EXTT11=
EXTT12=
EXTT13=
PLAYORDER=
